# xmcd CD database file
#
# Track frame offsets:
#	150
#	15415
#	31299
#	49382
#	63960
#	80606
#	97355
#	113833
#	125855
#	140365
#	155911
#
# Disc length: 2295 seconds
#
# Revision: 0
# Processed by: cddbd v1.5.2PL0 Copyright (c) Steve Scherf et al.
# Submitted via: CDex 1.70beta2
#
DISCID=9d08f50b
DTITLE=Trent Willmon - Little Ol' Cafe
DYEAR=2010
DGENRE=Country
TTITLE0=A Woman Changes Everything
TTITLE1=I Ain't Through Lovin' You Yet
TTITLE2=Paris
TTITLE3=What A Woman
TTITLE4=Mamacita
TTITLE5=Little Ol' Cafe
TTITLE6=Daddies and Daughters
TTITLE7=Whatever Happened
TTITLE8=Wish You Were Beer
TTITLE9=Wrong Again
TTITLE10=Whiskey
EXTD=YEAR: 2010
EXTT0=
EXTT1=
EXTT2=
EXTT3=
EXTT4=
EXTT5=
EXTT6=
EXTT7=
EXTT8=
EXTT9=
EXTT10=
PLAYORDER=
